HIERARCHY
ROOT Hips
{
  OFFSET 0.000000 0.000000 0.000000
  CHANNELS 6 Xposition Yposition Zposition Xrotation Yrotation Zrotation
  JOINT Spine
  {
    OFFSET 0.294439 -23.041931 -5.594416
    CHANNELS 3 Xrotation Yrotation Zrotation
    JOINT Chest
    {
      OFFSET 0.294439 -23.041931 -5.594416
      CHANNELS 3 Xrotation Yrotation Zrotation
      JOINT Neck
      {
        OFFSET 5.598770 -15.748586 -6.569289
        CHANNELS 3 Xrotation Yrotation Zrotation
        JOINT Head
        {
          OFFSET 10.192536 6.624752 -5.574205
          CHANNELS 3 Xrotation Yrotation Zrotation
          End Site
          {
            OFFSET 0.0 0.0 5.0
          }
        }
      }
      JOINT LeftShoulder
      {
        OFFSET 13.066933 1.750226 7.926415
        CHANNELS 3 Xrotation Yrotation Zrotation
        JOINT LeftArm
        {
          OFFSET 4.510936 19.460103 -5.383970
          CHANNELS 3 Xrotation Yrotation Zrotation
          JOINT LeftForeArm
          {
            OFFSET 10.499008 -9.065568 -16.183111
            CHANNELS 3 Xrotation Yrotation Zrotation
            JOINT LeftHand
            {
              OFFSET -5.000000 0.000000 0.000000
              CHANNELS 3 Xrotation Yrotation Zrotation
              End Site
              {
                OFFSET 0.0 0.0 5.0
              }
            }
          }
        }
      }
      JOINT RightShoulder
      {
        OFFSET -13.066933 -1.750226 -7.926415
        CHANNELS 3 Xrotation Yrotation Zrotation
        JOINT RightArm
        {
          OFFSET 4.714771 21.313515 -8.453970
          CHANNELS 3 Xrotation Yrotation Zrotation
          JOINT RightForeArm
          {
            OFFSET 17.023383 -8.759746 -12.481490
            CHANNELS 3 Xrotation Yrotation Zrotation
            JOINT RightHand
            {
              OFFSET 5.000000 0.000000 0.000000
              CHANNELS 3 Xrotation Yrotation Zrotation
              End Site
              {
                OFFSET 0.0 0.0 5.0
              }
            }
          }
        }
      }
    }
  }
  JOINT LeftUpLeg
  {
    OFFSET 11.177921 -0.601902 3.295762
    CHANNELS 3 Xrotation Yrotation Zrotation
    JOINT LeftLeg
    {
      OFFSET 9.545786 39.220941 -5.659016
      CHANNELS 3 Xrotation Yrotation Zrotation
      JOINT LeftFoot
      {
        OFFSET 7.367566 31.771946 13.424232
        CHANNELS 3 Xrotation Yrotation Zrotation
        JOINT LeftToeBase
        {
          OFFSET 6.192979 15.050042 -8.701159
          CHANNELS 3 Xrotation Yrotation Zrotation
          End Site
          {
            OFFSET 0.0 0.0 5.0
          }
        }
      }
    }
  }
  JOINT RightUpLeg
  {
    OFFSET -11.177921 0.601902 -3.295762
    CHANNELS 3 Xrotation Yrotation Zrotation
    JOINT RightLeg
    {
      OFFSET -4.652360 39.225860 3.363092
      CHANNELS 3 Xrotation Yrotation Zrotation
      JOINT RightFoot
      {
        OFFSET -2.698556 26.351875 24.184242
        CHANNELS 3 Xrotation Yrotation Zrotation
        JOINT RightToeBase
        {
          OFFSET -4.745185 13.005549 -7.011612
          CHANNELS 3 Xrotation Yrotation Zrotation
          End Site
          {
            OFFSET 0.0 0.0 5.0
          }
        }
      }
    }
  }
}
MOTION
Frames: 12
Frame Time: 0.066667
0.000000 0.000000 0.000000 0.000000 0.000000 0.000000 0.000000 0.000000 0.000000 0.000000 0.000000 0.000000 0.000000 0.000000 0.000000 0.000000 0.000000 0.000000 0.000000 0.000000 0.000000 0.000000 0.000000 0.000000 -56.988960 -26.845344 132.535295 0.000000 0.000000 0.000000 0.000000 0.000000 0.000000 0.000000 0.000000 0.000000 -6.114166 22.291515 -30.333501 0.000000 0.000000 0.000000 0.000000 0.000000 0.000000 0.000000 0.000000 0.000000 0.000000 0.000000 0.000000 0.000000 0.000000 0.000000 0.000000 0.000000 0.000000 0.000000 0.000000 0.000000 0.000000 0.000000 0.000000 0.000000 0.000000 0.000000
0.000000 0.000000 0.000000 0.115946 0.587824 -0.290398 -1.878771 0.351679 -1.665216 2.580602 4.724759 -5.537311 -2.239236 7.588835 4.182286 0.000000 0.000000 0.000000 -3.049087 -1.578829 -7.567633 34.769509 25.326053 12.749541 12.674241 -50.897793 -26.272135 0.000000 0.000000 0.000000 -1.343119 -2.535068 -6.982651 -0.327039 -5.762422 3.891533 -5.403347 22.012599 -27.275086 0.000000 0.000000 0.000000 -2.456219 0.533909 -0.393372 3.295391 -0.793421 0.042867 -0.223691 -0.217920 -0.534627 0.000000 0.000000 0.000000 -0.872243 -0.123457 0.257489 -2.287058 -0.391081 0.182755 -1.836695 -0.320855 0.633081 0.000000 0.000000 0.000000
0.000000 0.000000 0.000000 0.246973 1.935046 -0.509412 -0.761872 0.705044 -3.030020 2.307795 9.529753 -6.591897 -3.963796 14.408533 7.427415 0.000000 0.000000 0.000000 -10.913011 -1.031803 -9.547942 54.501145 48.572257 22.447174 5.854917 -32.614911 -19.829687 0.000000 0.000000 0.000000 -2.463377 -4.414786 -11.977786 5.046152 -7.066966 12.145094 -1.265473 22.908003 -6.239741 0.000000 0.000000 0.000000 -3.811757 0.749344 -1.017590 6.632587 -1.741000 0.328028 -0.364294 -0.761205 -1.572199 0.000000 0.000000 0.000000 -1.456991 -0.293438 1.663087 -3.196988 -0.727745 0.471126 -1.705017 2.208722 5.140165 0.000000 0.000000 0.000000
0.000000 0.000000 0.000000 0.466167 3.291936 -1.071494 1.284122 0.841833 -3.238687 1.130286 15.613839 -6.663282 -5.903237 17.238598 6.674893 0.000000 0.000000 0.000000 -19.121293 5.095942 0.851254 53.526552 69.713864 18.874911 1.182054 -30.543026 -4.327413 0.000000 0.000000 0.000000 -6.124536 -3.524077 -10.809342 5.331336 -6.356079 11.917570 -2.099162 23.068042 -10.260091 0.000000 0.000000 0.000000 -4.124885 -0.005471 -5.596712 14.133846 -1.291450 -3.769067 2.659646 -6.241177 -9.809909 0.000000 0.000000 0.000000 -4.271859 -0.779344 5.767346 1.322381 -0.470028 0.646457 2.476354 4.526979 7.301827 0.000000 0.000000 0.000000
0.000000 0.000000 0.000000 0.518508 4.547609 -1.049165 0.823880 0.648705 -2.547226 -0.597448 20.273603 -5.174376 -6.190288 21.575492 9.491009 0.000000 0.000000 0.000000 -13.914023 11.749971 19.113433 -18.513933 70.703557 -48.645887 -7.696528 -37.955847 22.134602 0.000000 0.000000 0.000000 -1.368988 -2.101383 -5.913855 5.147290 -8.180416 13.225205 -1.060866 14.512853 -8.317224 0.000000 0.000000 0.000000 -2.537503 -0.967597 -9.602954 15.463291 1.234056 -8.568197 6.227761 -11.942086 -20.170002 0.000000 0.000000 0.000000 -4.352537 -0.971009 9.771145 5.586345 -2.279081 2.850483 7.753577 8.351777 13.072582 0.000000 0.000000 0.000000
0.000000 0.000000 0.000000 0.513928 4.635926 -1.015333 0.602475 0.352348 -1.387337 -0.174224 18.538895 -5.294373 -8.240258 18.043608 3.791771 0.000000 0.000000 0.000000 -13.342702 0.486331 -6.673237 24.204972 31.347653 3.703020 -25.934511 -68.216809 37.555499 0.000000 0.000000 0.000000 -2.460225 5.554642 11.543657 17.486825 1.908390 20.124808 -0.934648 24.741687 -4.259493 0.000000 0.000000 0.000000 -0.881214 -1.297637 -10.097996 13.694024 1.724723 -8.937529 5.824095 -12.193299 -20.871521 0.000000 0.000000 0.000000 -2.016568 -1.023503 11.675366 9.851673 -5.685517 6.252504 8.144615 7.923552 11.849699 0.000000 0.000000 0.000000
0.000000 0.000000 0.000000 0.271268 1.890305 -0.604375 3.771479 -0.250809 1.077323 4.352274 7.630183 -9.522413 -8.319009 14.962080 1.169226 0.000000 0.000000 0.000000 28.629572 -6.813820 -61.571005 4.664154 -35.590025 26.679026 148.586469 -25.482662 -172.723186 0.000000 0.000000 0.000000 -3.574745 9.598299 19.326707 24.098618 4.880581 25.228324 -0.598055 27.357708 -2.456907 0.000000 0.000000 0.000000 8.241904 -2.667688 -10.284520 13.919748 -0.282385 -5.454765 3.235097 -9.487391 -16.050486 0.000000 0.000000 0.000000 4.371453 -0.849446 11.064190 15.107518 -10.102429 10.012045 7.865309 4.696598 4.387583 0.000000 0.000000 0.000000
0.000000 0.000000 0.000000 -0.231032 1.725987 1.153815 3.608810 -0.791834 3.033195 4.436045 6.310044 -9.206302 -7.337068 14.381746 2.158467 0.000000 0.000000 0.000000 -23.812696 -6.950521 -25.254445 26.085783 7.998753 12.367327 101.346271 -54.055377 -134.636029 0.000000 0.000000 0.000000 -13.137246 11.803081 15.586126 13.010990 -11.498824 25.661377 -1.207236 14.695198 -9.341827 0.000000 0.000000 0.000000 -7.538636 1.092774 -3.552100 6.343464 0.116346 -3.319391 -0.984957 -11.001962 -20.587258 0.000000 0.000000 0.000000 11.591594 -0.591593 10.504736 12.276600 -11.130184 11.119516 7.507776 0.152185 -5.461987 0.000000 0.000000 0.000000
0.000000 0.000000 0.000000 -1.341532 -8.494756 2.468117 -0.744969 -1.566069 6.595869 7.115531 -18.195771 -6.905735 -8.913690 14.694304 0.057652 0.000000 0.000000 0.000000 -21.798099 4.614002 -1.554936 46.615159 13.047750 22.754101 57.369834 -75.397947 -70.592797 0.000000 0.000000 0.000000 -17.676751 -20.082314 -42.705422 -1.447483 -29.803652 30.777135 0.225875 16.766876 1.532598 0.000000 0.000000 0.000000 0.509092 -0.374092 -1.800861 -0.231369 -0.507886 1.333127 -5.310563 -8.698860 -17.838715 0.000000 0.000000 0.000000 12.701300 -1.007531 12.756760 -0.110847 -16.830169 18.639794 -5.380742 -7.166823 -8.245227 0.000000 0.000000 0.000000
0.000000 0.000000 0.000000 -2.367569 -15.797630 3.699387 -2.578143 -1.591801 7.112875 8.367267 -24.700763 -7.333878 -6.921686 10.080845 -1.030938 0.000000 0.000000 0.000000 -6.719250 2.509970 2.673223 44.686225 13.700618 21.530492 64.937315 -80.538523 -73.821705 0.000000 0.000000 0.000000 -0.496154 -15.926008 -41.610021 -16.819609 -40.640908 32.226600 -3.234321 24.536774 -14.794558 0.000000 0.000000 0.000000 7.697748 -1.980757 -1.700998 3.010843 -2.830374 4.620255 2.887829 -11.912988 -21.208547 0.000000 0.000000 0.000000 12.727478 -1.434812 14.916502 -0.587813 -16.867257 18.783977 -4.646140 -6.146422 -7.201898 0.000000 0.000000 0.000000
0.000000 0.000000 0.000000 -3.281028 -15.723272 5.895191 -2.499103 -1.573442 7.010708 8.168363 -25.002583 -7.008444 -8.535218 11.207253 -2.454216 0.000000 0.000000 0.000000 11.990175 1.152569 22.555229 55.900305 -2.635540 30.109798 59.308162 -48.639946 -103.114378 0.000000 0.000000 0.000000 3.140516 -11.824977 -31.790359 -18.077919 -42.430970 36.173729 -2.926322 16.801653 -19.625193 0.000000 0.000000 0.000000 -6.044854 0.819067 -3.317315 1.246465 -4.325836 9.070478 2.525216 -10.697415 -18.813597 0.000000 0.000000 0.000000 8.583029 -1.609719 16.350513 3.963603 -16.216938 17.160426 0.355365 -2.734036 -5.262729 0.000000 0.000000 0.000000
0.000000 0.000000 0.000000 -2.933908 -12.934354 5.691819 0.699889 -2.391447 9.618795 6.204564 -10.370617 -7.312756 -2.440892 7.206317 3.469600 0.000000 0.000000 0.000000 10.195017 -11.026112 -50.705313 8.722951 -31.761268 24.605485 164.388088 -26.633850 -176.282900 0.000000 0.000000 0.000000 -14.175658 -9.128833 -23.218034 8.719498 -5.328695 15.313043 -3.708833 22.726892 -18.303696 0.000000 0.000000 0.000000 -6.060481 1.079565 -2.029983 11.236115 -6.209707 6.261328 4.837101 -10.078572 -16.614634 0.000000 0.000000 0.000000 10.433716 -1.355762 14.644022 8.962590 -9.898982 10.233147 -2.498566 -0.371379 0.969091 0.000000 0.000000 0.000000
